<?xml version="1.0" encoding="utf-8"?>
<!-- Generator: Adobe Illustrator 22.0.1, SVG Export Plug-In . SVG Version: 6.00 Build 0)  -->
<svg version="1.0" xmlns="http://www.w3.org/2000/svg" xmlns:xlink="http://www.w3.org/1999/xlink" x="0px" y="0px"
	 viewBox="0 0 1150 200" style="enable-background:new 0 0 1150 200;" xml:space="preserve">
<style type="text/css">
	.st0{fill:#EC1E32;}
	.st1{fill:#FFFFFF;}
</style>
<g id="AH_Comm_Logo">
</g>
<g id="AH_Opn_Src_Logo">
	<g>
		<g>
			<path class="st0" d="M264,101.3h-44.7V1.6h44.5c33.2,0,54.7,19.5,54.7,49.8C318.6,81.7,297.2,101.3,264,101.3z M222.3,98.3H264
				c31.3,0,51.6-18.4,51.6-46.9c0-28.4-20.3-46.8-51.7-46.8h-41.6V98.3z"/>
		</g>
		<g>
			<path class="st0" d="M355.9,101.3h-30.2V1.6h30.2V101.3z M328.6,98.3h24.2V4.6h-24.2V98.3z"/>
		</g>
		<g>
			<path class="st0" d="M443.7,101.3h-75.6V1.6h75.6v25.1h-45.4v11.7h44.4v25.1h-44.4v12.7h45.4V101.3z M371,98.3h69.7V79.2h-45.4
				V60.5h44.4V41.4h-44.4V23.8h45.4V4.6H371V98.3z"/>
		</g>
		<g>
			<path class="st0" d="M550.6,101.3h-29l-36.8-53.5v53.5h-30.2V1.6h31.1l34.7,50.2V1.6h30.2V101.3z M523.1,98.3h24.5V4.6h-24.2
				v56.8L484.2,4.6h-26.6v93.7h24.2V38.2L523.1,98.3z"/>
		</g>
		<g>
			<path class="st0" d="M611.4,103.1c-31.3,0-54.1-21.7-54.1-51.5c0-29.9,22.7-51.5,54.1-51.5c26.9,0,39.5,15,45.4,27.6l0.6,1.3
				l-26,12.1l-0.6-1.4c-3.2-7.8-11.1-13-19.5-13c-13.4,0-23.5,10.7-23.5,24.9c0,14.2,10.1,25,23.5,25c8.4,0,16.3-5.2,19.5-13
				l0.6-1.4l26,11.9l-0.6,1.4C651.9,85.7,639.5,103.1,611.4,103.1z M611.4,3c-29.6,0-51.1,20.4-51.1,48.6
				c0,28.1,21.5,48.6,51.1,48.6c25.3,0,37-14.9,42.1-24.7L633,66c-4,8.1-12.5,13.5-21.6,13.5c-15.1,0-26.4-12-26.4-27.9
				c0-15.9,11.4-27.9,26.4-27.9c9.1,0,17.6,5.3,21.6,13.5l20.5-9.5C647.7,16,635.8,3,611.4,3z"/>
		</g>
		<g>
			<path class="st0" d="M738.1,101.3h-75.6V1.6h75.6v25.1h-45.4v11.7h44.4v25.1h-44.4v12.7h45.4V101.3z M665.5,98.3h69.7V79.2h-45.4
				V60.5h44.4V41.4h-44.4V23.8h45.4V4.6h-69.7V98.3z"/>
		</g>
		<g>
			<path class="st0" d="M845.1,101.3H815V63.2h-35.7v38.1h-30.2V1.6h30.2v35.3H815V1.6h30.2V101.3z M817.9,98.3h24.2V4.6h-24.2v35.3
				h-41.6V4.6H752v93.7h24.2V60.2h41.6V98.3z"/>
		</g>
		<g>
			<path class="st0" d="M933.2,101.3h-75.6V1.6h75.6v25.1h-45.4v11.7h44.4v25.1h-44.4v12.7h45.4V101.3z M860.6,98.3h69.7V79.2h-45.4
				V60.5h44.4V41.4h-44.4V23.8h45.4V4.6h-69.7V98.3z"/>
		</g>
		<g>
			<path class="st0" d="M1033.4,101.3H999l-13.7-32h-10.9v32h-30.2V1.6h53.2c24.8,0,35.9,17.2,35.9,34.2c0,19.3-12.5,27.5-17.9,30.2
				L1033.4,101.3z M1001,98.3h27.6l-17.2-33.6l2.7-1.3c4.9-2.4,16.3-9.9,16.3-27.5c0-15.6-10.2-31.2-32.9-31.2h-50.2v93.7h24.2v-32
				h15.8L1001,98.3z"/>
		</g>
		<g>
			<path class="st0" d="M1092.4,103.1c-31.6,0-54.5-21.7-54.5-51.5c0-29.9,22.9-51.5,54.5-51.5s54.5,21.7,54.5,51.5
				C1146.9,81.4,1124,103.1,1092.4,103.1z M1092.4,3c-29.9,0-51.6,20.4-51.6,48.6s21.7,48.6,51.6,48.6c29.9,0,51.6-20.4,51.6-48.6
				S1122.3,3,1092.4,3z"/>
		</g>
		<g>
			<path class="st0" d="M159.5,103.1c-30.9,0-48-15.2-48-42.7V1.6h30.6v57.7c0,11.1,6.2,17.2,17.3,17.2c10.9,0,17.2-6.3,17.2-17.2
				V1.6h30.6v58.6C207.3,87.9,190.3,103.1,159.5,103.1z M114.5,4.6v55.7c0,25.6,16,39.8,45,39.8c28.9,0,44.8-14.2,44.8-39.9V4.6
				h-24.7v54.7c0,12.4-7.7,20.1-20.1,20.1c-12.7,0-20.3-7.5-20.3-20.1V4.6H114.5z"/>
		</g>
		<g>
			<path class="st0" d="M159.5,163.5c-30.9,0-48-15.2-48-42.7v-9.4h30.6v8.3c0,11.1,6.2,17.2,17.3,17.2c10.9,0,17.2-6.3,17.2-17.2
				v-8.3h30.6v9.2C207.3,148.2,190.3,163.5,159.5,163.5z M114.5,114.3v6.4c0,25.6,16,39.8,45,39.8c28.9,0,44.8-14.2,44.8-39.9v-6.2
				h-24.7v5.3c0,12.4-7.7,20.1-20.1,20.1c-12.7,0-20.3-7.5-20.3-20.1v-5.3H114.5z"/>
		</g>
		<g>
			<path class="st0" d="M264,161.7h-44.7v-50.3h30.2v24h14.3c15.7,0,23.5-11.7,24-22.6l0.1-1.4h30.6l0,1.5
				C318,142.5,296.6,161.7,264,161.7z M222.3,158.7H264c30.3,0,50.3-17.4,51.5-44.4h-24.8c-1.2,11.8-9.9,24-26.9,24h-17.3v-24h-24.2
				V158.7z"/>
		</g>
		<g>
			<path class="st0" d="M355.9,161.7h-30.2v-50.3h30.2V161.7z M328.6,158.7h24.2v-44.4h-24.2V158.7z"/>
		</g>
		<g>
			<path class="st0" d="M443.7,161.7h-75.6v-50.3h74.6v12.5h-44.4v12.7h45.4V161.7z M371,158.7h69.7v-19.2h-45.4v-18.6h44.4v-6.6
				H371V158.7z"/>
		</g>
		<g>
			<path class="st0" d="M484.8,161.7h-30.2v-50.3h30.2V161.7z M457.6,158.7h24.2v-44.4h-24.2V158.7z"/>
		</g>
		<g>
			<path class="st0" d="M550.6,161.7h-29L487,111.4h32.8l0.5,0.8v-0.8h30.2V161.7z M523.1,158.7h24.5v-44.4h-24.2v7.4l-5.1-7.4
				h-25.6L523.1,158.7z"/>
		</g>
		<g>
			<path class="st0" d="M611.4,163.5c-30.6,0-53.3-21.3-54.1-50.6l0-1.5h30.6l0,1.4c0.4,13.9,10.3,24,23.4,24
				c8.4,0,16.3-5.2,19.5-13l0.6-1.4l26,11.9l-0.6,1.4C651.9,146.1,639.5,163.5,611.4,163.5z M560.4,114.3
				c1.4,27.2,22.2,46.1,51,46.1c25.3,0,37-14.9,42.1-24.7l-20.5-9.4c-4,8.1-12.5,13.5-21.6,13.5c-14.1,0-25.2-10.9-26.3-25.5H560.4z
				"/>
		</g>
		<g>
			<path class="st0" d="M738.1,161.7h-75.6v-50.3h74.6v12.5h-44.4v12.7h45.4V161.7z M665.5,158.7h69.7v-19.2h-45.4v-18.6h44.4v-6.6
				h-68.6V158.7z"/>
		</g>
		<g>
			<path class="st0" d="M845.1,161.7H815v-38.1h-35.7v38.1h-30.2v-50.3h96.1V161.7z M817.9,158.7h24.2v-44.4H752v44.4h24.2v-38.1
				h41.6V158.7z"/>
		</g>
		<g>
			<path class="st0" d="M933.2,161.7h-75.6v-50.3h74.6v12.5h-44.4v12.7h45.4V161.7z M860.6,158.7h69.7v-19.2h-45.4v-18.6h44.4v-6.6
				h-68.6V158.7z"/>
		</g>
		<g>
			<path class="st0" d="M1033.4,161.7H999l-13.7-32h-10.9v32h-30.2v-50.3h86l-1.2,2.2c-4.2,7.4-10.3,11.2-13.6,12.8v0L1033.4,161.7z
				 M1001,158.7h27.6l-17.2-33.6l2.7-1.3c2.6-1.3,7.3-4.2,11-9.4h-77.8v44.4h24.2v-32h15.8L1001,158.7z"/>
		</g>
		<g>
			<path class="st0" d="M1092.4,163.5c-30.9,0-53.8-21.3-54.5-50.6l0-1.5h30.6l0,1.4c0.4,14.2,10.2,24,23.9,24
				c13.4,0,23.3-9.9,23.9-24.1l0.1-1.4h30.6l0,1.5C1146.4,142.2,1123.5,163.5,1092.4,163.5z M1040.9,114.3
				c1.4,27.2,22.4,46.1,51.5,46.1c28.9,0,50.3-19.3,51.5-46.1h-24.8c-1.2,15.1-12.1,25.5-26.7,25.5c-14.6,0-25.7-10.6-26.8-25.5
				H1040.9z"/>
		</g>
		<g>
			<path class="st0" d="M114.5,101.3H81.8l-3.9-12.8H39.6l-3.9,12.8H3L39.8,1.6h37.9L114.5,101.3z M84,98.3h26.3L75.7,4.6H41.8
				L7.3,98.3h26.3l3.9-12.8h42.7L84,98.3z"/>
		</g>
		<g>
			<path class="st0" d="M114.5,161.7H81.8l-3.9-12.8H39.6l-3.9,12.8H3l18.5-50.3h29.8l-4,12.3l22.7,0l-4-12.3h29.8L114.5,161.7z
				 M84,158.7h26.3l-16.4-44.4H70.2l4,12.3H43.3l4-12.3H23.6L7.3,158.7h26.3l3.9-12.8h42.7L84,158.7z"/>
		</g>
		<g>
			<path class="st0" d="M114.5,198.2H81.8l-3.9-12.8l-38.2,0l-3.9,12.8H3l9.3-25.1h92.9L114.5,198.2z M84,195.2h26.3l-7.1-19.2H14.4
				l-7.1,19.2h26.3l3.9-12.8h42.7L84,195.2z"/>
		</g>
		<g>
			<path class="st0" d="M159.5,200c-23.1,0-38.6-8.6-44.9-24.9l-0.8-2H205l-0.8,2C198,191.4,182.5,200,159.5,200z M118.2,176
				c6.3,13.8,20.5,21,41.3,21c20.7,0,34.9-7.2,41.1-21H118.2z"/>
		</g>
		<g>
			<path class="st0" d="M264,198.2h-44.7v-25.1h93.4l-1.4,2.3C302.3,189.9,285.1,198.2,264,198.2z M222.3,195.2H264
				c18.9,0,34.5-7,43.3-19.2h-85V195.2z"/>
		</g>
		<g>
			<path class="st0" d="M355.9,198.2h-30.2v-25.1h30.2V198.2z M328.6,195.2h24.2V176h-24.2V195.2z"/>
		</g>
		<g>
			<path class="st0" d="M443.7,198.2h-75.6v-25.1l75.6,0V198.2z M371,195.2h69.7v-19.2l-69.7,0V195.2z"/>
		</g>
		<g>
			<path class="st0" d="M484.8,198.2h-30.2v-25.1h30.2V198.2z M457.6,195.2h24.2V176h-24.2V195.2z"/>
		</g>
		<g>
			<path class="st0" d="M550.6,198.2h-29l-17.3-25.1h46.3V198.2z M523.1,195.2h24.5V176h-37.7L523.1,195.2z"/>
		</g>
		<g>
			<path class="st0" d="M611.4,200c-20.1,0-37.6-9.2-46.9-24.7l-1.4-2.2h93.3l-1.2,2.2C650.1,184.5,637.6,200,611.4,200z M568.5,176
				c9.1,13.2,24.9,21,42.9,21c21.8,0,33.7-10.9,39.9-21H568.5z"/>
		</g>
		<g>
			<path class="st0" d="M738.1,198.2h-75.6v-25.1l75.6,0V198.2z M665.5,195.2h69.7v-19.2l-69.7,0V195.2z"/>
		</g>
		<g>
			<path class="st0" d="M779.2,198.2h-30.2v-25.1h30.2V198.2z M752,195.2h24.2V176H752V195.2z"/>
		</g>
		<g>
			<path class="st0" d="M845.1,198.2h-30.2v-25.1h30.2V198.2z M817.9,195.2h24.2V176h-24.2V195.2z"/>
		</g>
		<g>
			<path class="st0" d="M933.2,198.2h-75.6v-25.1l75.6,0V198.2z M860.6,195.2h69.7v-19.2l-69.7,0V195.2z"/>
		</g>
		<g>
			<path class="st0" d="M974.3,198.2h-30.2v-25.1h30.2V198.2z M947.1,195.2h24.2V176h-24.2V195.2z"/>
		</g>
		<g>
			<path class="st0" d="M1033.4,198.2H999l-10.8-25.1h32.3L1033.4,198.2z M1001,195.2h27.6l-9.8-19.2h-26L1001,195.2z"/>
		</g>
		<g>
			<path class="st0" d="M1092.4,200c-20.2,0-37.9-9.2-47.3-24.7l-1.4-2.3h97.3l-1.4,2.3C1130.3,190.8,1112.6,200,1092.4,200z
				 M1049.1,176c9.1,13.2,25.1,21,43.3,21c18.2,0,34.2-7.8,43.3-21H1049.1z"/>
		</g>
		<g>
			<path class="st0" d="M1092.4,79.5c-15.6,0-26.9-11.7-26.9-27.9c0-16.2,11.3-27.9,26.9-27.9s26.9,11.7,26.9,27.9
				C1119.2,67.7,1107.9,79.5,1092.4,79.5z M1092.4,26.6c-13.9,0-23.9,10.5-23.9,24.9c0,14.5,10.1,25,23.9,25s23.9-10.5,23.9-25
				C1116.3,37.1,1106.2,26.6,1092.4,26.6z"/>
		</g>
		<g>
			<path class="st0" d="M992.7,47.2h-21.3V23.8h21.3c6.2,0,12.8,4.1,12.8,11.6C1005.6,43.1,998.9,47.2,992.7,47.2z M974.3,44.2h18.4
				c4.8,0,9.9-3.1,9.9-8.8c0-5.6-5.1-8.7-9.9-8.7h-18.4V44.2z"/>
		</g>
		<g>
			<path class="st0" d="M263.9,78h-17.3V25H264c16.6,0,26.9,10.1,26.9,26.4C290.9,64.6,281.6,78,263.9,78z M249.6,75h14.3
				c15.8,0,24.1-11.9,24.1-23.6c0-14.5-9.2-23.5-23.9-23.5h-14.5V75z"/>
		</g>
		<path class="st0" d="M60.8,25h-4.1L43.3,66.3h30.9L60.8,25z M58.7,28.2l11.4,35.1H47.4L58.7,28.2L58.7,28.2z"/>
	</g>
</g>
<g id="AH_Comm_Icon">
</g>
<g id="AH_Opn_Src_Icon">
</g>
</svg>
